<svg xmlns="http://www.w3.org/2000/svg" width="315.095" height="60.811" viewBox="0 0 315.095 60.811">
  <g id="Grupo_16" data-name="Grupo 16" transform="translate(-118.207 -393.688)">
    <g id="Grupo_3" data-name="Grupo 3" transform="translate(118.707 438.506)">
      <path id="Caminho_7" data-name="Caminho 7" d="M0,0H6.5V7.471H24.523V0h6.514V8.2a9.376,9.376,0,0,1-.619,2.85,5.382,5.382,0,0,1-1.1,1.821A3.858,3.858,0,0,1,27.7,14.237a8.53,8.53,0,0,1-2.14.788H5.764a4.925,4.925,0,0,1-2.164-.51,5.081,5.081,0,0,1-1.952-1.64A7.421,7.421,0,0,1,.411,10.767,10.252,10.252,0,0,1,0,8.2Z" transform="translate(0 0)" fill="#fff" stroke="#6f6f6f" stroke-linecap="round" stroke-linejoin="round" stroke-width="1"/>
    </g>
    <path id="Caminho_10" data-name="Caminho 10" d="M1.124-28.67H7.909l9.059,10.531q8.98-10.531,9.019-10.531h6.8a.094.094,0,0,1,.079.1V-7.49q0,.1-.079.1H26.185a.088.088,0,0,1-.1-.1V-20.043L17.027-9.493h-.1q-.079-.02-9.118-10.55V-7.49a.088.088,0,0,1-.1.1H1.124a.088.088,0,0,1-.1-.1V-28.571Q1.045-28.67,1.124-28.67Zm46.205,0h6.745q.2.178,4.173,6.961Q66.278-8.045,66.614-7.43v.04H58.821q-.277-.278-7.22-12.177A16.085,16.085,0,0,0,50.712-21Q42.9-7.688,42.681-7.39H34.848v-.1Q46.874-27.976,47.329-28.67Zm27.869,0h22.45q.1.02.1.1v4.859a.088.088,0,0,1-.1.1H77.1q-1.721.218-1.721,1.666a1.576,1.576,0,0,0,1.048,1.468,1.861,1.861,0,0,0,.752.139H91.141A7.088,7.088,0,0,1,96.363-18a5.174,5.174,0,0,1,1.385,3.431V-13.1q0,3.114-3.62,5.037a7.466,7.466,0,0,1-3.086.674H68.691a.088.088,0,0,1-.1-.1v-4.859a.094.094,0,0,1,.1-.079H89.143a1.721,1.721,0,0,0,1.721-1.111q.079-.476.079-.555a1.588,1.588,0,0,0-1.029-1.487,1.917,1.917,0,0,0-.771-.139H75.377a7.227,7.227,0,0,1-5.7-2.657,5,5,0,0,1-1.088-3.054V-22.9q0-2.915,3.224-4.819A9.6,9.6,0,0,1,75.2-28.67Zm24.626,0h28.957q.1.02.1.1v4.859a.088.088,0,0,1-.1.1H117.725V-7.49a.088.088,0,0,1-.1.1H111.02a.088.088,0,0,1-.1-.1V-23.613h-11.1a.088.088,0,0,1-.1-.1v-4.859Q99.745-28.67,99.824-28.67Zm31.133,0h28.957q.1.02.1.1v4.859a.088.088,0,0,1-.1.1H130.957a.088.088,0,0,1-.1-.1v-4.859Q130.878-28.67,130.957-28.67Zm0,8.329h28.957q.1.02.1.1v4.422a.088.088,0,0,1-.1.1H130.957a.088.088,0,0,1-.1-.1v-4.422Q130.878-20.341,130.957-20.341Zm0,7.913h28.957q.1,0,.1.079V-7.49a.088.088,0,0,1-.1.1H130.957a.088.088,0,0,1-.1-.1v-4.859A.094.094,0,0,1,130.957-12.428ZM162.09-28.67h22.351a7.192,7.192,0,0,1,5.321,2.34,5.219,5.219,0,0,1,1.385,3.471v3.847q0,2.995-3.283,4.958l-.851.377,4.134,6.247-.1.04h-8.031q-.3-.337-3.936-5.85H168.776V-7.49a.088.088,0,0,1-.1.1H162.09a.088.088,0,0,1-.1-.1V-28.571Q162.011-28.67,162.09-28.67Zm6.686,5.057V-18.3h12.876a2.444,2.444,0,0,0,2.611-1.8,4.352,4.352,0,0,0,.079-.813,2.483,2.483,0,0,0-1.6-2.558,3.715,3.715,0,0,0-1.009-.139Zm30.955-5.057h22.45q.1.02.1.1v4.859a.088.088,0,0,1-.1.1H203.37q-2.552,0-3.4,2.8a6.941,6.941,0,0,0-.059.773v4.125a3.345,3.345,0,0,0,2.334,3.292,2.915,2.915,0,0,0,1.127.2h18.81q.1,0,.1.079V-7.49a.088.088,0,0,1-.1.1H199.869a7.127,7.127,0,0,1-5.756-2.816,5.1,5.1,0,0,1-.989-2.935v-9.916q0-2.6,2.947-4.561A7.634,7.634,0,0,1,199.731-28.67Zm24.626,0h28.957q.1.02.1.1v4.859a.088.088,0,0,1-.1.1H224.357a.088.088,0,0,1-.1-.1v-4.859Q224.277-28.67,224.357-28.67Zm0,8.329h28.957q.1.02.1.1v4.422a.088.088,0,0,1-.1.1H224.357a.088.088,0,0,1-.1-.1v-4.422Q224.277-20.341,224.357-20.341Zm0,7.913h28.957q.1,0,.1.079V-7.49a.088.088,0,0,1-.1.1H224.357a.088.088,0,0,1-.1-.1v-4.859A.094.094,0,0,1,224.357-12.428ZM255.49-28.67h6.587q.1.02.1.1v16.143h22.272q.1,0,.1.079V-7.49a.088.088,0,0,1-.1.1H255.49a.088.088,0,0,1-.1-.1V-28.571Q255.41-28.67,255.49-28.67Zm31.133,0h6.587q.1.02.1.1v16.143H315.58q.1,0,.1.079V-7.49a.088.088,0,0,1-.1.1H286.623a.088.088,0,0,1-.1-.1V-28.571Q286.544-28.67,286.623-28.67Z" transform="translate(117.277 441.529)" fill="#181818"/>
    <path id="Caminho_11" data-name="Caminho 11" d="M.22-.524l2.4-7.148H4.092L6.5-.524l-.128.191H5.634L5.028-2.184H1.688L1.082-.333H.348ZM1.954-2.992H4.762L3.486-6.864H3.23ZM7.347-.705v-.436h3.276a.639.639,0,0,0,.723-.723v-.872A.637.637,0,0,0,10.8-3.45L8.517-3.907a1.4,1.4,0,0,1-1.17-1.574v-.564A1.439,1.439,0,0,1,8.975-7.673h2.574l.479.372v.436H8.964a.639.639,0,0,0-.723.723v.723a.637.637,0,0,0,.543.713l2.287.457a1.4,1.4,0,0,1,1.17,1.574v.713A1.439,1.439,0,0,1,10.613-.333H7.826Zm6.17,0v-.436h3.276a.639.639,0,0,0,.723-.723v-.872a.637.637,0,0,0-.543-.713l-2.287-.457a1.4,1.4,0,0,1-1.17-1.574v-.564a1.439,1.439,0,0,1,1.628-1.628h2.574L18.2-7.3v.436H15.134a.639.639,0,0,0-.723.723v.723a.637.637,0,0,0,.543.713l2.287.457a1.4,1.4,0,0,1,1.17,1.574v.713A1.439,1.439,0,0,1,16.782-.333H14Zm6.489.372v-7.34H20.9v7.34Zm2.489-.372v-.436h3.276a.639.639,0,0,0,.723-.723v-.872a.637.637,0,0,0-.543-.713l-2.287-.457a1.4,1.4,0,0,1-1.17-1.574v-.564a1.439,1.439,0,0,1,1.628-1.628H26.7l.479.372v.436H24.112a.639.639,0,0,0-.723.723v.723a.637.637,0,0,0,.543.713l2.287.457a1.4,1.4,0,0,1,1.17,1.574v.713A1.439,1.439,0,0,1,25.76-.333H22.973Zm5.787-6.159v-.808h5.787v.808H31.622V-.333h-.894V-6.864Zm7,6.531v-7.34h4.787v.808H36.174v2.276h3.574v.808H36.174v2.638h3.893v.808Zm.936-8.329L37.685-10.1l1.468,1.436-.415.436-1.053-1-1.053,1Zm5.34,8.329v-7.34h.989l3.861,5.957V-7.673H47.3v7.34h-.989L42.45-6.29V-.333ZM49.109-1.96V-6.045a1.439,1.439,0,0,1,1.628-1.628h3l.479.372v.436H50.726A.639.639,0,0,0,50-6.141v4.276a.639.639,0,0,0,.723.723h3.489v.436l-.479.372h-3A1.439,1.439,0,0,1,49.109-1.96ZM55.7-.333v-7.34H56.6v7.34Zm2.064-.191,2.4-7.148H61.64l2.4,7.148-.128.191h-.734l-.606-1.851h-3.34L58.63-.333H57.9ZM59.5-2.992H62.31L61.034-6.864h-.255Zm7.563-3.872v-.808h5.787v.808H70.405V-.333h-.894V-6.864Zm7,6.531v-7.34h4.787v.808H74.958v2.276h3.574v.808H74.958v2.638h3.893v.808Zm1.745-8.223L77.171-10.1l.553.521L76.267-8.119Zm4.425,6.6V-6.045a1.439,1.439,0,0,1,1.628-1.628h3l.479.372v.436H81.851a.639.639,0,0,0-.723.723v4.276a.639.639,0,0,0,.723.723H85.34v.436l-.479.372h-3A1.439,1.439,0,0,1,80.234-1.96Zm6.6,1.628v-7.34h.989L91.68-1.716V-7.673h.894v7.34h-.989L87.723-6.29V-.333Zm7.659,0v-7.34h.894v7.34Zm2.7-1.628V-6.045a1.439,1.439,0,0,1,1.628-1.628h3l.479.372v.436H98.807a.639.639,0,0,0-.723.723v4.276a.639.639,0,0,0,.723.723H102.3v.436l-.479.372h-3A1.439,1.439,0,0,1,97.19-1.96Zm5.851,1.436,2.4-7.148h1.468l2.4,7.148-.128.191h-.734l-.606-1.851h-3.34L103.9-.333h-.734Zm1.734-2.468h2.808l-1.276-3.872h-.255ZM113.04-.333v-7.34h3.478a1.439,1.439,0,0,1,1.628,1.628v1.383a1.439,1.439,0,0,1-1.628,1.628h-2.585v2.7Zm.894-3.51h2.6a.639.639,0,0,0,.723-.723V-6.141a.639.639,0,0,0-.723-.723h-2.6Zm4.638,3.319,2.4-7.148h1.468l2.4,7.148-.128.191h-.734l-.606-1.851h-3.34l-.606,1.851H118.7Zm1.734-2.468h2.808l-1.276-3.872h-.255Zm5.712,2.659v-7.34H129.5a1.439,1.439,0,0,1,1.628,1.628v1.17a1.4,1.4,0,0,1-1.181,1.6l1.394,2.734-.117.213h-.755l-1.479-2.915h-2.074V-.333Zm.894-3.723h2.6a.639.639,0,0,0,.723-.723V-6.141a.639.639,0,0,0-.723-.723h-2.6Zm5.17,3.532,2.4-7.148h1.468l2.4,7.148-.128.191H137.5l-.606-1.851h-3.34l-.606,1.851h-.734Zm1.734-2.468h2.808l-1.277-3.872h-.255Zm8.159,1.032V-6.045A1.439,1.439,0,0,1,143.6-7.673h3l.479.372v.436h-3.489a.639.639,0,0,0-.723.723v4.276a.639.639,0,0,0,.723.723h3.489v.436l-.479.372h-3A1.439,1.439,0,0,1,141.974-1.96Zm6.6,1.628v-7.34h4.787v.808h-3.893v2.276h3.574v.808h-3.574v2.638h3.893v.808Zm6.276,0v-7.34h.894v6.531h3.574v.808Zm5.617-1.628V-7.673h.894v5.808a.639.639,0,0,0,.723.723h2.3a.639.639,0,0,0,.723-.723V-7.673h.894V-1.96a1.439,1.439,0,0,1-1.628,1.628h-2.276A1.439,1.439,0,0,1,160.461-1.96Zm7.382,1.628v-7.34h.894v6.531h3.574v.808Zm4.936-.191,2.4-7.148h1.468l2.4,7.148-.128.191h-.734l-.606-1.851h-3.34l-.606,1.851h-.734Zm1.734-2.468h2.808l-1.276-3.872h-.255Zm5.712,2.659v-7.34H183.7a1.439,1.439,0,0,1,1.628,1.628v1.17a1.4,1.4,0,0,1-1.181,1.6l1.393,2.734-.117.213h-.755l-1.479-2.915h-2.074V-.333Zm.894-3.723h2.6a.639.639,0,0,0,.723-.723V-6.141a.639.639,0,0,0-.723-.723h-2.6Zm5.914,3.723v-7.34h4.787v.808h-3.893v2.276H191.5v.808h-3.574v2.638h3.893v.808Zm5.957-.372v-.436h3.276a.639.639,0,0,0,.723-.723v-.872a.637.637,0,0,0-.543-.713l-2.287-.457a1.4,1.4,0,0,1-1.17-1.574v-.564a1.439,1.439,0,0,1,1.628-1.628h2.574l.479.372v.436h-3.064a.639.639,0,0,0-.723.723v.723a.637.637,0,0,0,.543.713l2.287.457a1.4,1.4,0,0,1,1.17,1.574v.713a1.439,1.439,0,0,1-1.628,1.628h-2.787Z" transform="translate(235.418 454.832)" fill="#6f6f6f"/>
    <g id="Grupo_4" data-name="Grupo 4" transform="translate(149.744 409.217) rotate(180)">
      <path id="Caminho_7-2" data-name="Caminho 7" d="M0,0H6.5V7.471H24.523V0h6.514V8.2a9.376,9.376,0,0,1-.619,2.85,5.382,5.382,0,0,1-1.1,1.821A3.858,3.858,0,0,1,27.7,14.237a8.53,8.53,0,0,1-2.14.788H5.764a4.925,4.925,0,0,1-2.164-.51,5.081,5.081,0,0,1-1.952-1.64A7.421,7.421,0,0,1,.411,10.767,10.252,10.252,0,0,1,0,8.2Z" transform="translate(0)" fill="#fff" stroke="#6f6f6f" stroke-linecap="round" stroke-linejoin="round" stroke-width="1"/>
    </g>
  </g>
</svg>
